<?xml version="1.0" encoding="UTF-8" standalone="no"?>
<svg
   xmlns:dc="http://purl.org/dc/elements/1.1/"
   xmlns:cc="http://creativecommons.org/ns#"
   xmlns:rdf="http://www.w3.org/1999/02/22-rdf-syntax-ns#"
   xmlns:svg="http://www.w3.org/2000/svg"
   xmlns="http://www.w3.org/2000/svg"
   xmlns:sodipodi="http://sodipodi.sourceforge.net/DTD/sodipodi-0.dtd"
   xmlns:inkscape="http://www.inkscape.org/namespaces/inkscape"
   version="1.1"
   id="svg2"
   xml:space="preserve"
   width="4100"
   height="2733.3333"
   viewBox="0 0 4100 2733.3333"
   sodipodi:docname="vecteezy_the-concept-of-vector-laptop-coding-or-html-programming_7495983.eps"><metadata
     id="metadata8"><rdf:RDF><cc:Work
         rdf:about=""><dc:format>image/svg+xml</dc:format><dc:type
           rdf:resource="http://purl.org/dc/dcmitype/StillImage" /></cc:Work></rdf:RDF></metadata><defs
     id="defs6" /><sodipodi:namedview
     pagecolor="#ffffff"
     bordercolor="#666666"
     borderopacity="1"
     objecttolerance="10"
     gridtolerance="10"
     guidetolerance="10"
     inkscape:pageopacity="0"
     inkscape:pageshadow="2"
     inkscape:window-width="640"
     inkscape:window-height="480"
     id="namedview4" /><g
     id="g10"
     inkscape:groupmode="layer"
     inkscape:label="ink_ext_XXXXXX"
     transform="matrix(1.3333333,0,0,-1.3333333,0,2733.3333)"><g
       id="g12"
       transform="scale(0.1)"><path
         d="M 30750,0 H 0 V 20500 H 30750 V 0"
         style="fill:#ffffff;fill-opacity:1;fill-rule:nonzero;stroke:none"
         id="path14" /><path
         d="m 26206.3,3604.7 c 0,-1149.8 -4765.6,-2081.9 -10644.1,-2081.9 -5878.54,0 -10644.04,932.1 -10644.04,2081.9 0,1149.8 4765.5,2081.8 10644.04,2081.8 5878.5,0 10644.1,-932 10644.1,-2081.8"
         style="fill:#e2cab7;fill-opacity:1;fill-rule:nonzero;stroke:none"
         id="path16" /><path
         d="m 6852.09,4359.8 c 0,0 48.49,93.7 251.4,88.3 18.63,-0.5 35.48,-2.4 50.84,-5.3 -72.22,74.1 -136.39,147 -193.61,217.9 -9.94,-6.8 -16.14,-9.9 -16.14,-9.9 0,0 -0.54,0.9 -1.27,2.2 -30.4,-15.7 -83.89,-32.1 -165.4,-19.3 -215.07,33.7 -230.37,133.8 -230.37,133.8 0,0 67.81,80.8 264.62,31.2 22.57,-5.7 42.06,-13 58.93,-21.1 -46.12,63.6 -86.53,125.1 -121.93,183.7 -13.62,-6.4 -22.21,-8.9 -22.21,-8.9 0,0 -0.35,1 -0.82,2.4 -32.11,-9.7 -86.59,-16 -162.86,10.9 -201.24,71 -198.07,170.2 -198.07,170.2 0,0 79.8,65.8 260.58,-17.3 20.03,-9.2 37.01,-19.3 51.5,-29.7 -33.81,64.7 -61.15,124.7 -83.28,178.9 -0.96,-0.2 -1.58,-0.4 -1.58,-0.4 0,0 -0.3,1 -0.7,2.4 -32.6,-7.9 -87.34,-11.2 -162.01,19.9 -197,82 -188.36,180.9 -188.36,180.9 0,0 83.31,61.2 259.23,-31.7 15.61,-8.2 29.21,-16.9 41.18,-25.8 -10.39,33.6 -18.1,62.8 -23.78,86.7 -20.17,14.6 -89.36,72.1 -116.1,189.2 -45.48,199.2 37.36,265.5 37.36,265.5 0,0 100.38,-17.7 129.41,-234.8 12.14,-90.8 -10.38,-157.9 -27.73,-193.9 7.61,-35.3 20.86,-87.1 43.12,-152.1 0.78,-0.9 1.64,-1.9 2.39,-2.8 4.09,33.8 14.29,73.7 36.45,116.8 91.06,176.9 194.42,174.4 194.42,174.4 0,0 63.7,-76.2 -50.91,-256.2 -49.71,-78.1 -111.1,-113.7 -146.08,-128.7 24.9,-60.9 56.52,-129.3 96.71,-203.6 3.62,29.9 11.83,63.8 28.18,100.5 81.14,181.6 184.49,184.8 184.49,184.8 0,0 67.81,-72.5 -36.68,-258.6 -37.54,-66.8 -84.72,-105 -119.21,-125.8 39.46,-65.2 85.25,-134 138.33,-205.4 -2.08,31 -0.24,67 9.5,107.4 47.58,197.3 150.66,219.8 150.66,219.8 0,0 81.52,-60.2 11.33,-266.2 -26.46,-77.7 -69.45,-125.8 -100.64,-152.4 66.09,-81.7 141.67,-166.2 228.25,-252.3 0.49,-0.2 1.03,-0.4 1.52,-0.7 -11.55,32.8 -20.27,73.9 -19.49,123.3 3.23,203 98.9,247.4 98.9,247.4 0,0 92.7,-40.8 69.33,-257.2 -10.21,-94.6 -50.77,-155.2 -75.92,-184.5 81.26,-76.1 171.1,-153.2 270.64,-230.3 6.18,-4.8 7.3,-13.6 2.53,-19.8 -0.57,-0.7 -1.19,-1.4 -1.84,-2 -4.99,-4.4 -12.54,-4.7 -17.99,-0.5 -100.4,77.8 -191.04,155.5 -273.04,232.4 -0.51,-0.5 -0.82,-0.7 -0.82,-0.7 0,0 -0.71,0.8 -1.71,1.9 -26.23,-22 -74.81,-49.7 -157.16,-55.1 -217.23,-14.2 -254.09,80.2 -254.09,80.2"
         style="fill:#ee224b;fill-opacity:1;fill-rule:nonzero;stroke:none"
         id="path18" /><path
         d="m 6999.82,3953.7 c 0,0 -10.14,105 163.21,210.6 15.91,9.7 31.11,17.2 45.57,23.2 -100.89,23 -194.35,49.4 -280.88,77.8 -4.66,-11.1 -8.2,-17 -8.2,-17 0,0 -0.93,0.5 -2.25,1.1 -17,-29.7 -53.01,-72.5 -128.42,-106 -198.94,-88.4 -266.14,-12.6 -266.14,-12.6 0,0 13.09,104.7 205.34,169.8 22.05,7.4 42.35,12 60.9,14.3 -73.26,28.4 -140.54,58 -202.11,88.1 -7.97,-12.8 -13.83,-19.5 -13.83,-19.5 0,0 -0.81,0.6 -1.96,1.5 -21.69,-25.6 -64.05,-60.4 -142.71,-79.2 -207.53,-49.7 -258.75,35.4 -258.75,35.4 0,0 31.33,98.5 228.25,126.9 21.82,3.1 41.55,3.9 59.37,3 -63.53,36 -119.04,71.5 -167.06,105.1 -0.67,-0.8 -1.11,-1.2 -1.11,-1.2 0,0 -0.78,0.6 -1.88,1.6 -23.08,-24.4 -67.29,-56.8 -146.87,-71.2 -209.95,-38.1 -256.39,49.6 -256.39,49.6 0,0 36.72,96.7 234.91,114.1 17.6,1.6 33.75,1.7 48.62,0.7 -27.01,22.7 -49.29,42.9 -67.03,59.9 -24.9,1.3 -114.23,12.1 -200.25,95.9 -146.29,142.6 -112.75,243.3 -112.75,243.3 0,0 93.91,39.6 236.15,-127 59.49,-69.6 77,-138.2 81.96,-177.9 25.56,-25.5 64.82,-61.8 118.81,-104.3 1.15,-0.4 2.38,-0.7 3.5,-1.1 -14.91,30.7 -28.01,69.7 -32.77,117.9 -19.56,198 68.62,252 68.62,252 0,0 94.84,-29.4 96.3,-242.8 0.63,-92.5 -31.61,-155.7 -52.83,-187.3 53.97,-37.7 117.66,-77.9 191.76,-118.6 -13.19,27.1 -24.72,60.1 -30.87,99.7 -30.47,196.6 54.6,255.4 54.6,255.4 0,0 96.32,-24.1 109.56,-237.1 4.76,-76.5 -14.14,-134.2 -31.81,-170.4 68.56,-33.3 144.34,-66.2 227.69,-97.4 -18.56,24.9 -36.6,56.2 -50.34,95.4 -67.16,191.5 7.23,266.3 7.23,266.3 0,0 101.1,-6.2 154.02,-217.4 19.95,-79.6 9.94,-143.3 -1.84,-182.5 99.89,-32.8 209.25,-62.8 328.69,-88.1 0.53,0.1 1.09,0.2 1.63,0.3 -27.49,21.3 -57.13,51 -83.29,93 -107.46,172.2 -51.25,261.4 -51.25,261.4 0,0 100.02,16.1 197.89,-178.4 42.73,-84.9 41.57,-157.8 36.37,-196.1 109.56,-19.8 226.83,-35.8 352.3,-46.5 7.78,-0.7 13.54,-7.5 12.88,-15.3 -0.08,-0.9 -0.25,-1.8 -0.48,-2.6 -1.8,-6.4 -7.94,-10.8 -14.8,-10.3 -126.55,10.9 -244.88,27 -355.47,47 -0.2,-0.6 -0.32,-1 -0.32,-1 0,0 -1.01,0.2 -2.45,0.6 -10.08,-32.7 -35.85,-82.3 -102.09,-131.5 -174.76,-129.9 -256.93,-70.6 -256.93,-70.6"
         style="fill:#ee224b;fill-opacity:1;fill-rule:nonzero;stroke:none"
         id="path20" /><path
         d="m 23641.1,13347.3 c 0,-662.6 -537.2,-1199.9 -1199.9,-1199.9 -662.6,0 -1199.8,537.3 -1199.8,1199.9 0,662.7 537.2,1199.9 1199.8,1199.9 662.7,0 1199.9,-537.2 1199.9,-1199.9 z m 1721.3,-513.3 v 1120 l -879.5,143.6 c -27.6,74.9 -59.1,147.8 -94.4,218.6 l 481.3,733.7 -791.9,792 -723.6,-520.5 c -71.7,33.3 -145.5,62.7 -221.3,88.1 l -178.5,859 H 21834.6 L 21691,15389 c -74.9,-27.6 -147.9,-59.1 -218.7,-94.4 l -733.7,481.3 -791.9,-791.9 520.4,-723.6 c -33.2,-71.7 -62.6,-145.6 -88,-221.3 l -859,-178.5 v -1119.9 l 879.5,-143.6 c 27.5,-74.9 59.1,-147.9 94.3,-218.7 l -481.2,-733.7 791.9,-791.9 723.5,520.4 c 71.8,-33.2 145.6,-62.6 221.3,-88 l 178.5,-859.1 h 1120 l 143.6,879.6 c 74.9,27.5 147.8,59.1 218.6,94.3 l 733.8,-481.2 791.9,791.9 -520.5,723.5 c 33.3,71.8 62.7,145.6 88.1,221.3 l 859,178.5"
         style="fill:#1c3558;fill-opacity:1;fill-rule:nonzero;stroke:none"
         id="path22" /><path
         d="m 7903.75,11841.2 c 0,-424.1 -343.8,-767.9 -767.91,-767.9 -424.1,0 -767.91,343.8 -767.91,767.9 0,424.1 343.81,767.9 767.91,767.9 424.11,0 767.91,-343.8 767.91,-767.9 z m 1101.63,-328.5 v 716.8 l -562.89,91.9 c -17.63,47.9 -37.81,94.6 -60.4,139.9 l 308.01,469.6 -506.82,506.8 -463.07,-333.1 c -45.9,21.3 -93.16,40.1 -141.62,56.4 l -114.23,549.8 H 6747.6 l -91.9,-562.9 c -47.94,-17.7 -94.64,-37.8 -139.94,-60.4 l -469.58,308 -506.82,-506.8 333.08,-463.1 c -21.27,-45.9 -40.12,-93.2 -56.36,-141.6 l -549.77,-114.3 V 11453 l 562.9,-91.9 c 17.62,-48 37.81,-94.7 60.38,-140 l -307.99,-469.5 506.82,-506.9 463.05,333.1 c 45.91,-21.3 93.17,-40.1 141.63,-56.4 l 114.23,-549.7 h 716.76 l 91.9,562.9 c 47.94,17.6 94.64,37.8 139.94,60.4 l 469.58,-308 506.82,506.8 -333.08,463.1 c 21.28,45.9 40.12,93.1 56.37,141.6 l 549.76,114.2"
         style="fill:#f6ae3b;fill-opacity:1;fill-rule:nonzero;stroke:none"
         id="path24" /><path
         d="m 3664.36,18671.3 c -136.43,0 -247.44,-111 -247.44,-247.5 0,-136.4 111.01,-247.4 247.44,-247.4 136.44,0 247.44,111 247.44,247.4 0,136.5 -111,247.5 -247.44,247.5 z m 0,-740.9 c -272.08,0 -493.44,221.3 -493.44,493.4 0,272.1 221.36,493.5 493.44,493.5 272.09,0 493.44,-221.4 493.44,-493.5 0,-272.1 -221.35,-493.4 -493.44,-493.4"
         style="fill:#1c3558;fill-opacity:1;fill-rule:nonzero;stroke:none"
         id="path26" /><path
         d="m 15186.3,17669.8 c -136.5,0 -247.5,-111 -247.5,-247.4 0,-136.5 111,-247.5 247.5,-247.5 136.4,0 247.4,111 247.4,247.5 0,136.4 -111,247.4 -247.4,247.4 z m 0,-740.9 c -272.1,0 -493.5,221.4 -493.5,493.5 0,272.1 221.4,493.4 493.5,493.4 272.1,0 493.4,-221.3 493.4,-493.4 0,-272.1 -221.3,-493.5 -493.4,-493.5"
         style="fill:#1c3558;fill-opacity:1;fill-rule:nonzero;stroke:none"
         id="path28" /><path
         d="m 18447.1,15516 h -239.3 v 219 c 0,35.9 -47.4,64.9 -106,64.9 v 0 c -58.5,0 -105.9,-29 -105.9,-64.9 v -219 h -239.3 c -38.1,0 -69,-47.4 -69,-105.9 v 0 c 0,-58.5 30.9,-105.9 69,-105.9 h 239.3 v -219 c 0,-35.9 47.4,-64.9 105.9,-64.9 v 0 c 58.6,0 106,29 106,64.9 v 219 h 239.3 c 38.1,0 69,47.4 69,105.9 v 0 c 0,58.5 -30.9,105.9 -69,105.9"
         style="fill:#ee224b;fill-opacity:1;fill-rule:nonzero;stroke:none"
         id="path30" /><path
         d="m 11724.5,14765.6 h -150.3 v 137.5 c 0,22.5 -29.8,40.7 -66.5,40.7 v 0 c -36.7,0 -66.5,-18.2 -66.5,-40.7 v -137.5 h -150.3 c -23.9,0 -43.3,-29.8 -43.3,-66.5 v 0 c 0,-36.8 19.4,-66.6 43.3,-66.6 h 150.3 V 14495 c 0,-22.5 29.8,-40.7 66.5,-40.7 v 0 c 36.7,0 66.5,18.2 66.5,40.7 v 137.5 h 150.3 c 23.9,0 43.3,29.8 43.3,66.6 v 0 c 0,36.7 -19.4,66.5 -43.3,66.5"
         style="fill:#f6ae3b;fill-opacity:1;fill-rule:nonzero;stroke:none"
         id="path32" /><path
         d="m 18449,1949.5 c -27.8,55 -95.2,77.1 -150.2,49.3 -55,-27.9 -77.1,-95.2 -49.3,-150.2 27.9,-55 95.3,-77.1 150.3,-49.3 54.9,27.9 77,95.3 49.2,150.2 z m 99.1,50.2 c 55.6,-109.6 11.5,-244 -98.1,-299.5 -109.7,-55.6 -244.1,-11.5 -299.6,98.2 -55.5,109.6 -11.5,244 98.2,299.5 109.6,55.6 244,11.5 299.5,-98.2"
         style="fill:#f6ae3b;fill-opacity:1;fill-rule:nonzero;stroke:none"
         id="path34" /><path
         d="m 26551.4,9660.8 c -47.8,94.5 -163.6,132.4 -258,84.6 -94.4,-47.8 -132.4,-163.6 -84.5,-258 47.8,-94.4 163.5,-132.4 257.9,-84.5 94.5,47.8 132.4,163.5 84.6,257.9 z m 170.2,86.2 c 95.4,-188.3 19.7,-419.1 -168.6,-514.4 -188.3,-95.3 -419,-19.7 -514.4,168.6 -95.3,188.3 -19.7,419.1 168.6,514.4 188.3,95.4 419.1,19.7 514.4,-168.6"
         style="fill:#f6ae3b;fill-opacity:1;fill-rule:nonzero;stroke:none"
         id="path36" /><path
         d="m 19505.2,2572.4 -134.1,-67.9 62.1,-122.7 c 10.2,-20.1 -8.1,-49.8 -40.9,-66.4 v 0 c -32.8,-16.6 -67.6,-13.8 -77.7,6.3 l -62.2,122.7 -134,-67.9 c -21.4,-10.8 -52.1,7 -68.7,39.8 v 0 c -16.6,32.8 -12.7,68.1 8.6,78.9 l 134.1,67.9 -62.2,122.7 c -10.1,20 8.2,49.8 41,66.3 v 0 c 32.8,16.7 67.6,13.8 77.7,-6.2 l 62.1,-122.7 134.1,67.8 c 21.3,10.8 52.1,-7 68.7,-39.7 v 0 c 16.6,-32.8 12.7,-68.1 -8.6,-78.9"
         style="fill:#1c3558;fill-opacity:1;fill-rule:nonzero;stroke:none"
         id="path38" /><path
         d="m 29471.5,7337.7 -134.1,-67.9 62.1,-122.7 c 10.2,-20.1 -8.2,-49.8 -40.9,-66.4 v 0 c -32.8,-16.6 -67.6,-13.8 -77.8,6.3 l -62.1,122.7 -134.1,-67.9 c -21.3,-10.8 -52,7 -68.6,39.8 v 0 c -16.6,32.8 -12.8,68.1 8.6,78.9 l 134,67.9 -62.1,122.7 c -10.2,20 8.2,49.8 41,66.4 v 0 c 32.7,16.6 67.5,13.7 77.7,-6.3 l 62.1,-122.7 134.1,67.8 c 21.3,10.8 52,-7 68.6,-39.7 v 0 c 16.6,-32.8 12.8,-68.1 -8.5,-78.9"
         style="fill:#1c3558;fill-opacity:1;fill-rule:nonzero;stroke:none"
         id="path40" /><path
         d="m 26722.1,17299.3 c 28.4,-83.5 119.4,-128.4 203,-100 83.5,28.3 128.4,119.4 100,202.9 -28.4,83.6 -119.4,128.4 -203,100.1 -83.5,-28.4 -128.4,-119.5 -100,-203 z m -150.6,-51.2 c -56.6,166.6 32.9,348.2 199.5,404.8 166.5,56.5 348.1,-32.9 404.7,-199.5 56.6,-166.6 -32.9,-348.2 -199.5,-404.7 -166.6,-56.6 -348.1,32.9 -404.7,199.4"
         style="fill:#ee224b;fill-opacity:1;fill-rule:nonzero;stroke:none"
         id="path42" /><path
         d="m 4043.28,4772.1 c 36.23,-106.6 152.49,-163.9 259.15,-127.7 106.65,36.2 163.95,152.5 127.72,259.2 -36.23,106.6 -152.49,163.9 -259.15,127.7 -106.65,-36.2 -163.95,-152.5 -127.72,-259.2 z m -192.31,-65.3 c -72.26,212.7 42,444.5 254.7,516.8 212.7,72.3 444.53,-42 516.79,-254.7 72.26,-212.7 -42.01,-444.6 -254.71,-516.8 -212.7,-72.3 -444.52,42 -516.78,254.7"
         style="fill:#ee224b;fill-opacity:1;fill-rule:nonzero;stroke:none"
         id="path44" /><path
         d="m 25634.4,16846.8 142.3,48.4 -44.2,130.2 c -7.3,21.3 15.1,48.1 49.8,60 v 0 c 34.8,11.8 68.9,4.1 76.1,-17.2 l 44.3,-130.2 142.2,48.3 c 22.7,7.7 50.6,-14.3 62.4,-49.1 v 0 c 11.8,-34.7 3.1,-69.2 -19.6,-76.9 l -142.3,-48.3 44.3,-130.2 c 7.2,-21.3 -15.1,-48.2 -49.9,-60 v 0 c -34.8,-11.8 -68.9,-4.1 -76.1,17.2 l -44.2,130.2 -142.3,-48.3 c -22.6,-7.7 -50.6,14.3 -62.4,49 v 0 c -11.8,34.8 -3,69.3 19.6,76.9"
         style="fill:#1c3558;fill-opacity:1;fill-rule:nonzero;stroke:none"
         id="path46" /><path
         d="m 3602.63,9804.7 142.28,48.3 -44.23,130.2 c -7.23,21.3 15.09,48.2 49.88,60 v 0 c 34.78,11.8 68.84,4.1 76.08,-17.2 l 44.23,-130.2 142.28,48.3 c 22.65,7.7 50.58,-14.2 62.39,-49 v 0 c 11.82,-34.8 3.04,-69.2 -19.6,-76.9 l -142.28,-48.4 44.23,-130.2 c 7.24,-21.3 -15.09,-48.1 -49.87,-59.9 v 0 c -34.79,-11.9 -68.85,-4.2 -76.09,17.1 l -44.23,130.3 -142.28,-48.4 c -22.64,-7.7 -50.58,14.3 -62.39,49.1 v 0 c -11.81,34.7 -3.04,69.2 19.6,76.9"
         style="fill:#1c3558;fill-opacity:1;fill-rule:nonzero;stroke:none"
         id="path48" /><path
         d="m 13413.3,18103.7 h -125 c -32.2,258.2 -251.5,458.4 -518.5,458.4 -67.8,0 -132.3,-13.4 -191.8,-36.8 -163.7,208.1 -417.3,342.1 -702.6,342.1 -184.8,0 -356.5,-56.1 -499.1,-152.1 -130.8,331.6 -453.4,566.6 -831.5,566.6 -421.2,0 -773.51,-291.6 -868.37,-683.7 -74.81,32.7 -157.28,51.1 -244.14,51.1 -315.2,0 -573.36,-239.1 -606.01,-545.6 h -244.73 c -11.89,0 -21.51,-9.7 -21.51,-21.6 0,-11.9 9.62,-21.5 21.51,-21.5 h 4831.75 c 11.9,0 21.5,9.6 21.5,21.5 0,11.9 -9.6,21.6 -21.5,21.6"
         style="fill:#f2594a;fill-opacity:1;fill-rule:nonzero;stroke:none"
         id="path50" /><path
         d="m 13609.6,18103.7 h -92.7 c -11.9,0 -21.5,-9.7 -21.5,-21.6 0,-11.9 9.6,-21.5 21.5,-21.5 h 92.7 c 11.9,0 21.5,9.6 21.5,21.5 0,11.9 -9.6,21.6 -21.5,21.6"
         style="fill:#ee224b;fill-opacity:1;fill-rule:nonzero;stroke:none"
         id="path52" /><path
         d="m 8461.59,18103.7 h -196.33 c -11.89,0 -21.51,-9.7 -21.51,-21.6 0,-11.9 9.62,-21.5 21.51,-21.5 h 196.33 c 11.89,0 21.51,9.6 21.51,21.5 0,11.9 -9.62,21.6 -21.51,21.6"
         style="fill:#ee224b;fill-opacity:1;fill-rule:nonzero;stroke:none"
         id="path54" /><path
         d="m 26305.2,13507.7 c 0,-520.7 -422.1,-942.8 -942.8,-942.8 -520.7,0 -942.8,422.1 -942.8,942.8 0,520.6 422.1,942.7 942.8,942.7 520.7,0 942.8,-422.1 942.8,-942.7"
         style="fill:#f2594a;fill-opacity:1;fill-rule:nonzero;stroke:none"
         id="path56" /><path
         d="m 24622.2,13516.5 484.7,249.7 v -72.1 l -408.5,-204.7 v -2.1 l 408.5,-204.8 v -72 l -484.7,249.6 v 56.4"
         style="fill:#ffffff;fill-opacity:1;fill-rule:nonzero;stroke:none"
         id="path58" /><path
         d="m 25174.8,13168.7 291.4,757.3 h 71.1 l -292.5,-757.3 h -70"
         style="fill:#ffffff;fill-opacity:1;fill-rule:nonzero;stroke:none"
         id="path60" /><path
         d="m 26087.7,13459.1 -484.6,-248.6 v 72 l 411.5,204.8 v 2.1 l -411.5,204.7 v 72.1 l 484.6,-248.6 v -58.5"
         style="fill:#ffffff;fill-opacity:1;fill-rule:nonzero;stroke:none"
         id="path62" /><path
         d="m 3660.96,13299.4 c 0,-471.5 -382.24,-853.8 -853.76,-853.8 -471.52,0 -853.76,382.3 -853.76,853.8 0,471.5 382.24,853.7 853.76,853.7 471.52,0 853.76,-382.2 853.76,-853.7"
         style="fill:#ee224b;fill-opacity:1;fill-rule:nonzero;stroke:none"
         id="path64" /><path
         d="m 2588.86,13041.3 c -26.44,-13.8 -85.07,-32.2 -159.79,-32.2 -167.85,0 -277.05,113.8 -277.05,284 0,171.3 117.25,295.4 298.89,295.4 59.78,0 112.66,-14.9 140.25,-28.7 l -22.99,-78.2 c -24.14,13.8 -62.08,26.4 -117.26,26.4 -127.6,0 -196.58,-94.2 -196.58,-210.3 0,-128.8 82.77,-208.1 193.13,-208.1 57.48,0 95.42,14.9 124.16,27.6 l 17.24,-75.9"
         style="fill:#ffffff;fill-opacity:1;fill-rule:nonzero;stroke:none"
         id="path66" /><path
         d="m 2693.45,13124.1 c 29.88,-19.6 82.76,-40.3 133.35,-40.3 73.58,0 108.06,36.8 108.06,82.8 0,48.3 -28.74,74.7 -103.46,102.3 -100.02,35.7 -147.15,90.8 -147.15,157.5 0,89.7 72.42,163.3 191.99,163.3 56.32,0 105.75,-16.1 136.8,-34.5 l -25.3,-73.6 c -21.84,13.8 -62.08,32.2 -113.81,32.2 -59.77,0 -93.11,-34.5 -93.11,-75.9 0,-46 33.34,-66.7 105.75,-94.3 96.57,-36.7 146,-85 146,-167.8 0,-97.7 -75.87,-166.7 -208.07,-166.7 -60.93,0 -117.26,15 -156.35,38 l 25.3,77"
         style="fill:#ffffff;fill-opacity:1;fill-rule:nonzero;stroke:none"
         id="path68" /><path
         d="m 3148.66,13124.1 c 29.88,-19.6 82.77,-40.3 133.35,-40.3 73.58,0 108.06,36.8 108.06,82.8 0,48.3 -28.74,74.7 -103.46,102.3 -100.02,35.7 -147.15,90.8 -147.15,157.5 0,89.7 72.42,163.3 191.99,163.3 56.32,0 105.75,-16.1 136.8,-34.5 l -25.3,-73.6 c -21.84,13.8 -62.07,32.2 -113.81,32.2 -59.77,0 -93.11,-34.5 -93.11,-75.9 0,-46 33.34,-66.7 105.76,-94.3 96.56,-36.7 145.99,-85 145.99,-167.8 0,-97.7 -75.87,-166.7 -208.07,-166.7 -60.93,0 -117.26,15 -156.35,38 l 25.3,77"
         style="fill:#ffffff;fill-opacity:1;fill-rule:nonzero;stroke:none"
         id="path70" /><path
         d="m 6136.27,15661.1 c 0,-632.7 -512.89,-1145.6 -1145.58,-1145.6 -632.69,0 -1145.59,512.9 -1145.59,1145.6 0,632.7 512.9,1145.6 1145.59,1145.6 632.69,0 1145.58,-512.9 1145.58,-1145.6"
         style="fill:#f6ae3b;fill-opacity:1;fill-rule:nonzero;stroke:none"
         id="path72" /><path
         d="m 4231.19,15903.9 v -189.8 h 183.88 v 189.8 h 111.36 v -493.8 h -111.36 v 206.6 h -183.88 v -206.6 h -112.08 v 493.8 h 112.08"
         style="fill:#ffffff;fill-opacity:1;fill-rule:nonzero;stroke:none"
         id="path74" /><path
         d="m 4719.13,15810.1 h -132.6 v 93.8 h 379.48 v -93.8 h -134.8 v -400 h -112.08 v 400"
         style="fill:#ffffff;fill-opacity:1;fill-rule:nonzero;stroke:none"
         id="path76" /><path
         d="m 5440.01,15599.1 c -2.19,59.3 -4.39,131.2 -4.39,202.9 h -2.2 c -15.39,-63 -35.9,-133.3 -54.95,-191.2 l -60.07,-192.6 h -87.18 l -52.74,191.2 c -16.12,57.9 -32.97,128.2 -44.69,192.6 h -1.47 c -2.93,-66.6 -5.13,-142.8 -8.79,-204.3 l -8.79,-187.6 h -103.3 l 31.5,493.8 h 148.72 l 48.35,-164.9 c 15.39,-57.1 30.77,-118.6 41.76,-176.5 h 2.19 c 13.93,57.1 30.77,122.3 46.89,177.3 l 52.75,164.1 h 145.79 l 27.1,-493.8 h -109.16 l -7.32,189"
         style="fill:#ffffff;fill-opacity:1;fill-rule:nonzero;stroke:none"
         id="path78" /><path
         d="m 5642.24,15903.9 h 112.08 v -400 h 196.34 v -93.8 h -308.42 v 493.8"
         style="fill:#ffffff;fill-opacity:1;fill-rule:nonzero;stroke:none"
         id="path80" /><path
         d="m 29248,10929 c 0,-659.8 -534.9,-1194.8 -1194.7,-1194.8 -659.9,0 -1194.8,535 -1194.8,1194.8 0,659.8 534.9,1194.7 1194.8,1194.7 659.8,0 1194.7,-534.9 1194.7,-1194.7"
         style="fill:#1c3558;fill-opacity:1;fill-rule:nonzero;stroke:none"
         id="path82" /><path
         d="m 27458.8,10942.9 c 11.1,-2.6 24.6,-3.4 43.3,-3.4 68.7,0 111.1,34.7 111.1,93.3 0,52.6 -36.5,83.9 -100.9,83.9 -26.3,0 -44.1,-2.5 -53.5,-5.1 z m -128,259.5 c 39.8,6.8 95.8,11.9 174.7,11.9 79.7,0 136.5,-15.3 174.7,-45.8 36.5,-28.9 61.1,-76.4 61.1,-132.3 0,-56 -18.7,-103.5 -52.6,-135.8 -44.1,-41.5 -109.4,-60.2 -185.8,-60.2 -16.9,0 -32.2,0.9 -44.1,2.6 v -204.5 h -128 v 564.1"
         style="fill:#ffffff;fill-opacity:1;fill-rule:nonzero;stroke:none"
         id="path84" /><path
         d="m 27953.4,11210 v -219.6 h 212.9 v 219.6 h 128.9 v -571.7 h -128.9 v 239.2 h -212.9 v -239.2 h -129.8 v 571.7 h 129.8"
         style="fill:#ffffff;fill-opacity:1;fill-rule:nonzero;stroke:none"
         id="path86" /><path
         d="m 28536.1,10942.9 c 11,-2.6 24.6,-3.4 43.2,-3.4 68.7,0 111.2,34.7 111.2,93.3 0,52.6 -36.5,83.9 -101,83.9 -26.3,0 -44.1,-2.5 -53.4,-5.1 z m -128.1,259.5 c 39.9,6.8 95.9,11.9 174.7,11.9 79.8,0 136.6,-15.3 174.8,-45.8 36.4,-28.9 61,-76.4 61,-132.3 0,-56 -18.6,-103.5 -52.6,-135.8 -44,-41.5 -109.4,-60.2 -185.7,-60.2 -17,0 -32.3,0.9 -44.1,2.6 v -204.5 H 28408 v 564.1"
         style="fill:#ffffff;fill-opacity:1;fill-rule:nonzero;stroke:none"
         id="path88" /><path
         d="m 22989.7,18671.3 c 0,-437.6 -354.7,-792.3 -792.2,-792.3 -437.6,0 -792.3,354.7 -792.3,792.3 0,437.5 354.7,792.2 792.3,792.2 437.5,0 792.2,-354.7 792.2,-792.2"
         style="fill:#f6ae3b;fill-opacity:1;fill-rule:nonzero;stroke:none"
         id="path90" /><path
         d="m 21938,18896.6 h 103.4 v -289.7 c 0,-130.5 -62.6,-176 -163.2,-176 -23.8,0 -55,4 -75.5,10.9 l 11.6,83.6 c 14.3,-4.8 32.6,-8.2 53,-8.2 43.5,0 70.7,19.7 70.7,91.1 v 288.3"
         style="fill:#ffffff;fill-opacity:1;fill-rule:nonzero;stroke:none"
         id="path92" /><path
         d="m 22131.1,18545.1 c 27.9,-14.3 70.7,-28.6 114.9,-28.6 47.6,0 72.7,19.7 72.7,49.7 0,28.5 -21.7,44.8 -76.8,64.5 -76.1,26.6 -125.8,68.7 -125.8,135.3 0,78.2 65.3,138 173.4,138 51.7,0 89.7,-10.8 116.9,-23.1 l -23.1,-83.6 c -18.3,8.9 -51,21.8 -95.9,21.8 -44.8,0 -66.6,-20.4 -66.6,-44.2 0,-29.3 25.8,-42.2 85,-64.6 80.9,-29.9 119,-72.1 119,-136.7 0,-76.8 -59.2,-142 -184.9,-142 -52.4,0 -104.1,13.6 -129.9,27.8 l 21.1,85.7"
         style="fill:#ffffff;fill-opacity:1;fill-rule:nonzero;stroke:none"
         id="path94" /><path
         d="m 25334.9,8044.5 h -2552.4 v 41 h 2511.4 v 4634.7 h 41 V 8044.5"
         style="fill:#1c3558;fill-opacity:1;fill-rule:nonzero;stroke:none"
         id="path96" /><path
         d="m 25314.6,12881.8 c -48.9,0 -88.8,-39.8 -88.8,-88.8 0,-48.9 39.9,-88.8 88.8,-88.8 49,0 88.8,39.9 88.8,88.8 0,49 -39.8,88.8 -88.8,88.8 z m 0,-259.6 c -94.2,0 -170.8,76.7 -170.8,170.8 0,94.2 76.6,170.8 170.8,170.8 94.2,0 170.8,-76.6 170.8,-170.8 0,-94.1 -76.6,-170.8 -170.8,-170.8"
         style="fill:#1c3558;fill-opacity:1;fill-rule:nonzero;stroke:none"
         id="path98" /><path
         d="m 28073.8,5717 h -5291.3 v 41 h 5250.3 v 4218 h 41 V 5717"
         style="fill:#1c3558;fill-opacity:1;fill-rule:nonzero;stroke:none"
         id="path100" /><path
         d="M 7135.84,7926 H 2786.7 v 4651.7 h 41 V 7967 h 4308.14 v -41"
         style="fill:#1c3558;fill-opacity:1;fill-rule:nonzero;stroke:none"
         id="path102" /><path
         d="m 2807.2,12751.8 c -48.94,0 -88.78,-39.9 -88.78,-88.8 0,-48.9 39.84,-88.8 88.78,-88.8 48.95,0 88.79,39.9 88.79,88.8 0,48.9 -39.84,88.8 -88.79,88.8 z m 0,-259.6 c -94.17,0 -170.78,76.6 -170.78,170.8 0,94.2 76.61,170.8 170.78,170.8 94.17,0 170.79,-76.6 170.79,-170.8 0,-94.2 -76.62,-170.8 -170.79,-170.8"
         style="fill:#1c3558;fill-opacity:1;fill-rule:nonzero;stroke:none"
         id="path104" /><path
         d="m 1804.98,10563.9 c -48.95,0 -88.79,-39.8 -88.79,-88.8 0,-48.9 39.84,-88.7 88.79,-88.7 48.95,0 88.78,39.8 88.78,88.7 0,49 -39.83,88.8 -88.78,88.8 z m 0,-259.5 c -94.17,0 -170.79,76.6 -170.79,170.7 0,94.2 76.62,170.8 170.79,170.8 94.17,0 170.79,-76.6 170.79,-170.8 0,-94.1 -76.62,-170.7 -170.79,-170.7"
         style="fill:#1c3558;fill-opacity:1;fill-rule:nonzero;stroke:none"
         id="path106" /><path
         d="m 2458.06,3900.3 c -48.95,0 -88.79,-39.8 -88.79,-88.8 0,-48.9 39.84,-88.8 88.79,-88.8 48.95,0 88.79,39.9 88.79,88.8 0,49 -39.84,88.8 -88.79,88.8 z m 0,-259.6 c -94.17,0 -170.79,76.7 -170.79,170.8 0,94.2 76.62,170.8 170.79,170.8 94.17,0 170.79,-76.6 170.79,-170.8 0,-94.1 -76.62,-170.8 -170.79,-170.8"
         style="fill:#1c3558;fill-opacity:1;fill-rule:nonzero;stroke:none"
         id="path108" /><path
         d="m 4990.69,14958.6 c -48.95,0 -88.79,-39.8 -88.79,-88.8 0,-48.9 39.84,-88.7 88.79,-88.7 48.94,0 88.78,39.8 88.78,88.7 0,49 -39.84,88.8 -88.78,88.8 z m 0,-259.5 c -94.18,0 -170.79,76.6 -170.79,170.7 0,94.2 76.61,170.8 170.79,170.8 94.17,0 170.78,-76.6 170.78,-170.8 0,-94.1 -76.61,-170.7 -170.78,-170.7"
         style="fill:#1c3558;fill-opacity:1;fill-rule:nonzero;stroke:none"
         id="path110" /><path
         d="M 7135.84,9721.8 H 4970.19 v 5018.3 h 41 V 9762.8 h 2124.65 v -41"
         style="fill:#1c3558;fill-opacity:1;fill-rule:nonzero;stroke:none"
         id="path112" /><path
         d="m 2478.57,3932.9 h -41 v 2413.2 h 4698.27 v -41 H 2478.57 V 3932.9"
         style="fill:#1c3558;fill-opacity:1;fill-rule:nonzero;stroke:none"
         id="path114" /><path
         d="m 2628.85,6305.1 h -844.38 v 4047 h 41 v -4006 h 803.38 v -41"
         style="fill:#1c3558;fill-opacity:1;fill-rule:nonzero;stroke:none"
         id="path116" /><path
         d="M 22738,13217.4 H 7375.01 V 4540.5 H 22738 v 8676.9"
         style="fill:#303535;fill-opacity:1;fill-rule:nonzero;stroke:none"
         id="path118" /><path
         d="M 22668.3,4579.8 H 7444.68 V 13178 H 22668.3 Z m -7609,9073.4 c 84.5,0 153,-68.5 153,-152.9 0,-84.5 -68.5,-153 -153,-153 -84.4,0 -152.9,68.5 -152.9,153 0,84.4 68.5,152.9 152.9,152.9 z m 7510.7,110.4 H 7548.72 c -228.03,0 -412.88,-184.9 -412.88,-412.9 V 4162.8 c 0,-216.2 166.25,-393.5 377.88,-411.3 11.54,-0.9 23.19,-1.6 35,-1.6 h 2938.68 l 70.8,-145.2 h 4257 311.1 4257 l 70.8,145.2 H 22570 c 20.7,0 41.1,1.6 61.1,4.6 199,29.5 351.8,201 351.8,408.3 v 9187.9 c 0,228 -184.9,412.9 -412.9,412.9"
         style="fill:#171f26;fill-opacity:1;fill-rule:nonzero;stroke:none"
         id="path120" /><path
         d="m 15059.3,13561.7 c 34,0 61.5,-27.5 61.5,-61.4 0,-34 -27.5,-61.5 -61.5,-61.5 -33.9,0 -61.4,27.5 -61.4,61.5 0,33.9 27.5,61.4 61.4,61.4 z m 0,-214.4 c 84.5,0 153,68.5 153,153 0,84.4 -68.5,152.9 -153,152.9 -84.4,0 -152.9,-68.5 -152.9,-152.9 0,-84.5 68.5,-153 152.9,-153"
         style="fill:#303535;fill-opacity:1;fill-rule:nonzero;stroke:none"
         id="path122" /><path
         d="m 15059.3,13438.8 c 34,0 61.5,27.5 61.5,61.5 0,33.9 -27.5,61.4 -61.5,61.4 -33.9,0 -61.4,-27.5 -61.4,-61.4 0,-34 27.5,-61.5 61.4,-61.5"
         style="fill:#211d1d;fill-opacity:1;fill-rule:nonzero;stroke:none"
         id="path124" /><path
         d="M 7444.69,13178 V 4579.8 H 22668.3 V 13178 H 7444.69"
         style="fill:#283445;fill-opacity:1;fill-rule:nonzero;stroke:none"
         id="path126" /><path
         d="m 7586.33,4751.8 v 8254.3 H 22526.7 V 4751.8 H 7586.33"
         style="fill:#1c3558;fill-opacity:1;fill-rule:nonzero;stroke:none"
         id="path128" /><path
         d="m 7586.33,13006.1 v -639.3 H 22526.7 v 639.3 H 7586.33"
         style="fill:#18293f;fill-opacity:1;fill-rule:nonzero;stroke:none"
         id="path130" /><path
         d="m 8008.19,12713.5 c 0,-74.2 -60.13,-134.3 -134.32,-134.3 -74.18,0 -134.32,60.1 -134.32,134.3 0,74.2 60.14,134.3 134.32,134.3 74.19,0 134.32,-60.1 134.32,-134.3"
         style="fill:#ee224b;fill-opacity:1;fill-rule:nonzero;stroke:none"
         id="path132" /><path
         d="m 8365.95,12713.5 c 0,-74.2 -60.14,-134.3 -134.32,-134.3 -74.18,0 -134.32,60.1 -134.32,134.3 0,74.2 60.14,134.3 134.32,134.3 74.18,0 134.32,-60.1 134.32,-134.3"
         style="fill:#ffffff;fill-opacity:1;fill-rule:nonzero;stroke:none"
         id="path134" /><path
         d="m 8723.71,12712 c 0,-74.2 -60.14,-134.3 -134.32,-134.3 -74.18,0 -134.32,60.1 -134.32,134.3 0,74.2 60.14,134.3 134.32,134.3 74.18,0 134.32,-60.1 134.32,-134.3"
         style="fill:#ffffff;fill-opacity:1;fill-rule:nonzero;stroke:none"
         id="path136" /><path
         d="M 23788.4,4246.8 H 6207.45 c -92.11,0 -127.24,-94.1 -91.42,-178.9 90.91,-215.4 569.3,-609.7 1102.77,-609.7 672.65,0 7779.1,0 7779.1,0 0,0 7106.5,0 7779.1,0 533.5,0 1011.9,394.3 1102.8,609.7 35.8,84.8 0.7,178.9 -91.4,178.9"
         style="fill:#171f26;fill-opacity:1;fill-rule:nonzero;stroke:none"
         id="path138" /><path
         d="M 23775.2,4246.8 H 6194.24 c -92.1,0 -127.24,-94.1 -91.42,-178.9 4.04,-9.6 9.21,-19.6 14.89,-29.8 h 7486.89 l 105.2,-105.2 h 2777.6 l 63.1,105.2 h 7301.2 c 5.7,10.2 10.8,20.2 14.9,29.8 35.8,84.8 0.7,178.9 -91.4,178.9"
         style="fill:#273344;fill-opacity:1;fill-rule:nonzero;stroke:none"
         id="path140" /><path
         d="m 8248.43,11703 v 138.2 H 13626.4 V 11703 H 8248.43"
         style="fill:#86a3ce;fill-opacity:1;fill-rule:nonzero;stroke:none"
         id="path142" /><path
         d="m 8248.43,11194.2 v 138.2 h 3069.87 v -138.2 H 8248.43"
         style="fill:#f2594a;fill-opacity:1;fill-rule:nonzero;stroke:none"
         id="path144" /><path
         d="m 11722.9,11194.2 v 138.2 h 6926.7 v -138.2 h -6926.7"
         style="fill:#f6ae3b;fill-opacity:1;fill-rule:nonzero;stroke:none"
         id="path146" /><path
         d="m 8248.43,5771.4 v 138.3 H 11318.3 V 5771.4 H 8248.43"
         style="fill:#f6ae3b;fill-opacity:1;fill-rule:nonzero;stroke:none"
         id="path148" /><path
         d="m 11672,5771.4 v 138.3 h 1681.4 V 5771.4 H 11672"
         style="fill:#f6ae3b;fill-opacity:1;fill-rule:nonzero;stroke:none"
         id="path150" /><path
         d="m 8248.43,5299.9 v 138.2 H 10300.8 V 5299.9 H 8248.43"
         style="fill:#f2594a;fill-opacity:1;fill-rule:nonzero;stroke:none"
         id="path152" /><path
         d="m 10645.8,5299.9 v 138.2 H 20853.2 V 5299.9 H 10645.8"
         style="fill:#86a3ce;fill-opacity:1;fill-rule:nonzero;stroke:none"
         id="path154" /><path
         d="m 8248.43,10685.4 v 138.3 h 5998.37 v -138.3 H 8248.43"
         style="fill:#f2594a;fill-opacity:1;fill-rule:nonzero;stroke:none"
         id="path156" /><path
         d="m 8248.43,10213.9 v 138.2 h 5452.37 v -138.2 H 8248.43"
         style="fill:#86a3ce;fill-opacity:1;fill-rule:nonzero;stroke:none"
         id="path158" /><path
         d="m 14143.8,10213.9 v 138.2 h 5452.4 v -138.2 h -5452.4"
         style="fill:#f2594a;fill-opacity:1;fill-rule:nonzero;stroke:none"
         id="path160" /><path
         d="m 8248.43,9742.3 v 138.2 H 12931.5 V 9742.3 H 8248.43"
         style="fill:#f2594a;fill-opacity:1;fill-rule:nonzero;stroke:none"
         id="path162" /><path
         d="m 15212.3,9742.3 v 138.2 h 5640.9 v -138.2 h -5640.9"
         style="fill:#f6ae3b;fill-opacity:1;fill-rule:nonzero;stroke:none"
         id="path164" /><path
         d="m 14676.3,10685.4 v 138.3 h 885.9 v -138.3 h -885.9"
         style="fill:#f2594a;fill-opacity:1;fill-rule:nonzero;stroke:none"
         id="path166" /><path
         d="m 19104.3,11194.2 v 138.2 h 885.9 v -138.2 h -885.9"
         style="fill:#f6ae3b;fill-opacity:1;fill-rule:nonzero;stroke:none"
         id="path168" /><path
         d="m 13257.9,9742.3 v 138.2 h 885.9 v -138.2 h -885.9"
         style="fill:#f2594a;fill-opacity:1;fill-rule:nonzero;stroke:none"
         id="path170" /><path
         d="m 14410.8,9742.3 v 138.2 h 402 v -138.2 h -402"
         style="fill:#f2594a;fill-opacity:1;fill-rule:nonzero;stroke:none"
         id="path172" /><path
         d="M 8248.43,6325.6 V 9326.4 H 8386.7 V 6325.6 h -138.27"
         style="fill:#86a3ce;fill-opacity:1;fill-rule:nonzero;stroke:none"
         id="path174" /><path
         d="m 27269.9,3080 c 0,-372.8 -1061.9,-675.1 -2371.8,-675.1 -1309.9,0 -2371.8,302.3 -2371.8,675.1 0,372.8 1061.9,675 2371.8,675 1309.9,0 2371.8,-302.2 2371.8,-675"
         style="fill:#e2cab7;fill-opacity:1;fill-rule:nonzero;stroke:none"
         id="path176" /><path
         d="m 25466.5,3074.7 c 0,0 392.4,-294.8 1025.6,-182.1 633.3,112.7 12.8,471.5 -409.5,547 -422.3,75.5 -616.1,-364.9 -616.1,-364.9"
         style="fill:#1d2a30;fill-opacity:1;fill-rule:nonzero;stroke:none"
         id="path178" /><path
         d="m 24548.2,3146.9 c 0,0 63,102 262.7,128.7 67.7,9 189.4,20.9 285.3,13.9 l 407.5,3.6 265.1,-31 51.1,-115.2 -139.8,-134.1 c 0,0 -377.1,-170.3 -504.8,-142.9 -127.7,27.3 -450,79 -453.1,88.1 -3,9.2 -174,188.9 -174,188.9"
         style="fill:#1d2a30;fill-opacity:1;fill-rule:nonzero;stroke:none"
         id="path180" /><path
         d="m 26146.7,4412.6 c 0,0 1039.6,122.6 1229.7,-274.7 272.3,-569 -1606.8,-1133.7 -1606.8,-1133.7 0,0 -287.1,277 -676.3,277 l -544,1003 472.6,96.4 1124.8,32"
         style="fill:#7a6d20;fill-opacity:1;fill-rule:nonzero;stroke:none"
         id="path182" /><path
         d="m 24839.6,4329.1 c 0,0 964,-495.7 1648.7,-393.7 l -635.6,-311.9 -1065.9,427.2 52.8,278.4"
         style="fill:#354023;fill-opacity:1;fill-rule:nonzero;stroke:none"
         id="path184" /><path
         d="m 25210.1,4829.1 -2189.3,-158.1 -79.1,-887.9 c 0,0 855.4,98.9 1399.7,367 744.8,87.5 557.2,77.7 868.7,162.1 v 516.9"
         style="fill:#f6ae3b;fill-opacity:1;fill-rule:nonzero;stroke:none"
         id="path186" /><path
         d="m 23009.2,4540.5 c 0,0 217.4,-211.4 1539,-167.5 0,0 -327.2,208.4 -342.8,208.4 -15.6,0 -966.6,0 -966.6,0 l -229.6,-40.9"
         style="fill:#1d2a30;fill-opacity:1;fill-rule:nonzero;stroke:none"
         id="path188" /><path
         d="m 25204.8,6827.4 c 0,0 -870.5,240.4 -1478.5,114.8 -246.5,-50.9 -451,-176.7 -535.2,-380.1 -291.9,-705.5 -533.6,-1890 -337.5,-1971.7 273.6,-114 611.1,-209.8 1663.2,-217.4 l 1295.4,748 c 0,0 54.7,735.6 -182.4,1381.1 -78.5,213.6 -272.2,285 -425,325.3"
         style="fill:#f6ae3b;fill-opacity:1;fill-rule:nonzero;stroke:none"
         id="path190" /><path
         d="m 27404.6,4012.2 c 0,6.2 -11.9,83.7 -11.9,83.7 10.1,-40.9 -88.5,-234.4 -324.7,-424.1 -305.1,-244.9 -1082.5,-540.7 -1347.5,-620.6 84.2,-55.2 49.1,-47 49.1,-47 0,0 1642.3,431 1635,1008"
         style="fill:#354023;fill-opacity:1;fill-rule:nonzero;stroke:none"
         id="path192" /><path
         d="m 24687.1,4731.8 c 0,0 -718.3,216.7 -1341,264.4 0,0 349,802.9 428.8,1346.9 0,0 0,-350.1 -397.7,-1325.4 0,0 867.5,-87.5 1395.1,-304.1 l -85.2,18.2"
         style="fill:#1d2a30;fill-opacity:1;fill-rule:nonzero;stroke:none"
         id="path194" /><path
         d="m 25024.8,6822.5 c -0.4,0 -0.8,0.1 -1.2,0.1 -5,0.7 -8.4,5.3 -7.7,10.2 1.6,11.6 3,23.4 4.1,35.4 0.5,5 5,9 9.8,8.1 5,-0.4 8.6,-4.8 8.2,-9.8 -1.2,-12.3 -2.6,-24.4 -4.3,-36.2 -0.6,-4.5 -4.5,-7.8 -8.9,-7.8"
         style="fill:#e3962f;fill-opacity:1;fill-rule:nonzero;stroke:none"
         id="path196" /><path
         d="m 23955,6772.8 c -3.4,0 -6.6,1.9 -8.1,5 -11.4,23.3 -20.9,47.1 -28.2,70.7 -1.5,4.7 1.2,9.8 5.9,11.2 4.8,1.3 9.8,-1.2 11.3,-5.9 7,-22.7 16.1,-45.6 27.1,-68 2.2,-4.5 0.4,-9.9 -4.1,-12.1 -1.2,-0.6 -2.6,-0.9 -3.9,-0.9 z m 1031.6,-94.3 c -1.2,0 -2.3,0.2 -3.5,0.7 -4.6,1.9 -6.7,7.1 -4.8,11.7 9.1,21.9 16.9,45.3 23.3,69.6 1.2,4.8 6,7.6 10.9,6.4 4.8,-1.2 7.7,-6.1 6.5,-11 -6.6,-25.1 -14.7,-49.3 -24.1,-71.9 -1.4,-3.5 -4.8,-5.5 -8.3,-5.5 z m -948.6,-29.4 c -2.5,0 -5,1 -6.7,3.1 -16.9,19.2 -32.4,39.4 -46.3,60 -2.8,4.1 -1.7,9.7 2.4,12.5 4.1,2.8 9.7,1.7 12.5,-2.4 13.5,-20 28.6,-39.6 44.9,-58.3 3.3,-3.7 2.9,-9.4 -0.8,-12.7 -1.8,-1.5 -3.9,-2.2 -6,-2.2 z m 869.1,-96.2 c -2.1,0 -4.3,0.8 -6.1,2.4 -3.6,3.4 -3.8,9.1 -0.4,12.7 16.2,17.5 31.1,37 44.2,57.9 2.7,4.2 8.3,5.4 12.4,2.8 4.3,-2.6 5.5,-8.1 2.9,-12.4 -13.7,-21.8 -29.3,-42.2 -46.4,-60.5 -1.7,-1.9 -4.1,-2.9 -6.6,-2.9 z m -758.6,-4 c -1.8,0 -3.7,0.6 -5.3,1.7 -20.4,14.7 -40.2,30.7 -58.8,47.6 -3.7,3.3 -4,9 -0.7,12.7 3.4,3.7 9.1,3.9 12.7,0.6 18.2,-16.4 37.5,-32 57.4,-46.3 4,-2.9 4.9,-8.5 2,-12.5 -1.8,-2.5 -4.5,-3.8 -7.3,-3.8 z m 129.8,-73.3 c -1.2,0 -2.4,0.3 -3.6,0.7 -23,9.9 -45.8,21.2 -67.7,33.6 -4.4,2.4 -5.9,7.9 -3.5,12.3 2.5,4.3 8,5.8 12.3,3.4 21.4,-12.1 43.6,-23.1 66,-32.7 4.6,-2 6.7,-7.3 4.8,-11.8 -1.5,-3.5 -4.8,-5.5 -8.3,-5.5 z m 508.7,-9.8 c -3.4,0 -6.6,1.9 -8.2,5.2 -2.1,4.5 -0.2,9.8 4.3,12 22.4,10.5 43.6,22.9 62.9,36.8 4,3 9.6,2 12.6,-2 2.9,-4 2,-9.7 -2.1,-12.6 -20.2,-14.6 -42.3,-27.6 -65.7,-38.6 -1.2,-0.5 -2.5,-0.8 -3.8,-0.8 z m -366.1,-33.9 c -0.6,0 -1.2,0 -1.7,0.2 -24.8,4.7 -49.5,10.9 -73.4,18.2 -4.8,1.5 -7.5,6.5 -6,11.3 1.5,4.7 6.5,7.3 11.2,5.9 23.4,-7.1 47.4,-13.1 71.6,-17.8 4.8,-0.9 8,-5.6 7.1,-10.5 -0.8,-4.3 -4.6,-7.3 -8.8,-7.3 z m 223,-6.9 c -4.4,0 -8.3,3.3 -8.9,7.8 -0.7,5 2.8,9.5 7.7,10.2 25,3.3 49.1,8.3 71.9,14.6 4.8,1.3 9.7,-1.4 11.1,-6.2 1.3,-4.8 -1.5,-9.7 -6.3,-11.1 -23.5,-6.6 -48.5,-11.7 -74.3,-15.2 -0.4,0 -0.8,-0.1 -1.2,-0.1 z m -89.6,-5.8 c -20.1,0 -40.4,0.9 -60.2,2.6 -5,0.4 -8.6,4.8 -8.2,9.7 0.4,4.9 5,8.4 9.7,8.2 24.2,-2 49.3,-2.9 73.7,-2.3 0,0 0.1,0 0.2,0 4.8,0 8.8,-3.9 9,-8.8 0.1,-5 -3.9,-9.1 -8.9,-9.2 -5,-0.1 -10.1,-0.2 -15.3,-0.2"
         style="fill:#e3962f;fill-opacity:1;fill-rule:nonzero;stroke:none"
         id="path198" /><path
         d="m 23911.4,6915.9 c -4.5,0 -8.3,3.3 -8.9,7.9 -1.4,12.4 -2.3,24.7 -2.5,36.8 -0.1,4.9 3.8,9 8.8,9.1 5.5,-0.1 9.1,-3.8 9.2,-8.8 0.2,-11.4 1,-23.2 2.4,-35 0.6,-4.9 -2.9,-9.4 -7.9,-10 -0.3,0 -0.7,0 -1.1,0"
         style="fill:#e3962f;fill-opacity:1;fill-rule:nonzero;stroke:none"
         id="path200" /><path
         d="m 24559.4,6502.1 c 312.4,0 394.1,218.4 394.1,432 0,4.2 0.2,-4.2 0,0 -170.5,32.8 -493.8,74.6 -957.6,41.1 0,-213.5 251.2,-473.1 563.5,-473.1"
         style="fill:#fbc3a8;fill-opacity:1;fill-rule:nonzero;stroke:none"
         id="path202" /><path
         d="m 24377.6,7350.8 c 0,0 -168.4,-212.7 -339.4,-420.5 0,0 242.7,-235.9 251.7,-235.9 9,0 350.7,239 350.7,239 l -185.6,437.4 -77.4,-20"
         style="fill:#fbc3a8;fill-opacity:1;fill-rule:nonzero;stroke:none"
         id="path204" /><path
         d="m 24244.8,7180.8 669.3,-393.7 c 0,0 -159.1,-223.5 -354.6,-172.5 -187.4,49 -314.7,566.2 -314.7,566.2"
         style="fill:#eb9f7b;fill-opacity:1;fill-rule:nonzero;stroke:none"
         id="path206" /><path
         d="m 24244.8,7180.8 c 0,0 126,-360.8 333.9,-507 193.7,-136.1 975.4,543.8 918.1,765.6 -57.2,221.8 -334.5,615.3 -643,472.2 -308.5,-143.1 -594.7,-502.9 -609,-730.8"
         style="fill:#fbc3a8;fill-opacity:1;fill-rule:nonzero;stroke:none"
         id="path208" /><path
         d="m 24527,7641.9 c 0,0 -103.4,158.8 -192.8,44.3 -87.5,-112 -69.1,-264.7 44.3,-243.5 0,0 146.2,144.6 148.5,199.2"
         style="fill:#fbc3a8;fill-opacity:1;fill-rule:nonzero;stroke:none"
         id="path210" /><path
         d="m 24466.6,7572.1 c 0,0 -38.2,-87.8 221.3,168.8 0,0 120,-55.6 284.6,34 0,0 376.9,-263.3 393.4,-645.3 0,0 120.7,-70.1 148.2,164.7 0,0 410,30.1 116.1,396.1 -294,366 -548.7,312.5 -548.7,312.5 0,0 -285.9,436.7 -614.9,-430.8"
         style="fill:#1d2a30;fill-opacity:1;fill-rule:nonzero;stroke:none"
         id="path212" /><path
         d="m 25331.8,6343.1 c 0,0 0,-645.2 -42.6,-1089.1 0,0 73.9,529.7 42.6,1089.1"
         style="fill:#1d2a30;fill-opacity:1;fill-rule:nonzero;stroke:none"
         id="path214" /><path
         d="m 24911.2,5723.1 h 1980.5 c 20.1,0 35,-18.5 30.8,-38.2 l -295.8,-1372.7 h -2077.4 l 331.2,1386.7 c 3.4,14.2 16.1,24.2 30.7,24.2"
         style="fill:#304864;fill-opacity:1;fill-rule:nonzero;stroke:none"
         id="path216" /><path
         d="M 24978.5,5723.1 H 26959 c 20.1,0 35.1,-18.5 30.9,-38.2 L 26694,4312.2 h -2077.3 l 331.1,1386.7 c 3.4,14.2 16.1,24.2 30.7,24.2"
         style="fill:#1d2a30;fill-opacity:1;fill-rule:nonzero;stroke:none"
         id="path218" /><path
         d="m 24616.7,4312.2 h -1152 v 68.4 h 1152 v -68.4"
         style="fill:#304864;fill-opacity:1;fill-rule:nonzero;stroke:none"
         id="path220" /><path
         d="m 22941.7,3871.9 c 0,0 1283.2,529.1 2000.9,450.1 482.5,-53.2 939.5,-698.5 939.5,-698.5 0,0 -343.6,-165.1 -751,-323.2 0,0 -212.9,91.2 -291.9,85.1 -127.4,-9.8 -1119,-760.2 -1672.5,-310.1 -327.8,266.5 -225,796.6 -225,796.6"
         style="fill:#7a6d20;fill-opacity:1;fill-rule:nonzero;stroke:none"
         id="path222" /><path
         d="m 23948.2,3252.3 c -703.3,-268.6 -915.4,-15.1 -958.5,69.1 36.4,-90.5 94.1,-175 177,-246.1 523.3,-449.1 1429.5,217.8 1633.2,244.2 121.2,15.7 293.4,-38.3 293.4,-38.3 68.9,26.8 110.2,44.2 172.8,76.6 -359.8,350.6 -442.2,229 -1317.9,-105.5"
         style="fill:#354023;fill-opacity:1;fill-rule:nonzero;stroke:none"
         id="path224" /><path
         d="m 22976.6,3377.2 v 0 0 z"
         style="fill:#f14850;fill-opacity:1;fill-rule:nonzero;stroke:none"
         id="path226" /><path
         d="m 25053.7,3138 c 157.7,-12.2 793.6,205.5 827.1,-189.1 37.1,-437.8 -675.4,-294.9 -1052.1,-170.3 -125.3,41.5 -249.9,118.7 -288.2,204.5 -51.6,115.7 21.3,240 154.4,246.9 140.2,7.3 200.6,-79.9 358.8,-92"
         style="fill:#4d5576;fill-opacity:1;fill-rule:nonzero;stroke:none"
         id="path228" /><path
         d="m 25847.8,4991.9 178.6,97.4 c -28,58.3 -87.1,97.5 -159.5,97.5 -108.5,0 -205.6,-88 -216.9,-196.5 -11.2,-108.6 67.7,-196.5 176.3,-196.5 73.4,0 141.5,40.3 181.4,100 l -159.9,98.1"
         style="fill:#304864;fill-opacity:1;fill-rule:nonzero;stroke:none"
         id="path230" /></g></g></svg>
